<svg width="13" height="14" viewBox="0 0 13 14" fill="none" xmlns="http://www.w3.org/2000/svg">
<path d="M4.85898 0.875H7.38828C7.53867 0.875 7.67812 0.951563 7.76016 1.08008L8.17852 1.75H4.07148L4.48984 1.08008C4.56914 0.951563 4.71133 0.875 4.86172 0.875H4.85898ZM9.21211 1.75L8.50391 0.617969C8.26328 0.232422 7.84219 0 7.39102 0H4.85898C4.40781 0 3.98672 0.232422 3.74609 0.617969L3.03789 1.75H1.75273H0.875H0.4375C0.196875 1.75 0 1.94687 0 2.1875C0 2.42813 0.196875 2.625 0.4375 2.625H0.937891L1.63516 12.3758C1.69805 13.2918 2.46094 14 3.37969 14H8.87031C9.78906 14 10.5492 13.2918 10.6148 12.3758L11.3121 2.625H11.8125C12.0531 2.625 12.25 2.42813 12.25 2.1875C12.25 1.94687 12.0531 1.75 11.8125 1.75H11.375H10.4973H9.20937H9.21211ZM10.4371 2.625L9.74258 12.3129C9.70977 12.7695 9.32969 13.125 8.87031 13.125H3.37969C2.92031 13.125 2.54023 12.7695 2.50742 12.3129L1.81563 2.625H10.4371Z" fill="#F10000"/>
</svg>
