<svg width="14" height="14" viewBox="0 0 14 14" fill="none" xmlns="http://www.w3.org/2000/svg">
<path d="M0.995123 9.86834L0.366217 12.0039L0.0271542 13.1578C-0.0412051 13.3902 0.0216855 13.639 0.191217 13.8086C0.360748 13.9781 0.609576 14.041 0.839264 13.9754L1.9959 13.6336L4.13145 13.0047C4.47051 12.9062 4.7795 12.734 5.04473 12.5015C5.08301 12.4687 5.11856 12.4332 5.15411 12.3976L13.4721 4.0824C14.0709 3.48357 14.1447 2.56208 13.6963 1.88123C13.6334 1.78552 13.5568 1.69255 13.4721 1.60779L12.3947 0.52771C11.7111 -0.155884 10.6037 -0.155884 9.92012 0.52771L1.60215 8.84568C1.31778 9.13005 1.10997 9.48279 0.995123 9.86834ZM2.25294 10.2375C2.29942 10.0844 2.37598 9.94216 2.48262 9.82185C2.49903 9.80545 2.5127 9.78904 2.52911 9.77263L8.77715 3.52732L10.4725 5.22263L4.22715 11.4707C4.09864 11.5992 3.93731 11.6949 3.76231 11.7469L3.12247 11.9355L1.62403 12.3758L2.06426 10.8773L2.25294 10.2375Z" fill="#0097DB"/>
</svg>
