<svg width="14" height="12" viewBox="0 0 14 12" fill="none" xmlns="http://www.w3.org/2000/svg">
<path d="M1.3125 2.0625V1.1875H2.1875V2.0625H1.3125ZM0.4375 0.96875V2.28125C0.4375 2.64492 0.730078 2.9375 1.09375 2.9375H2.40625C2.76992 2.9375 3.0625 2.64492 3.0625 2.28125V0.96875C3.0625 0.605078 2.76992 0.3125 2.40625 0.3125H1.09375C0.730078 0.3125 0.4375 0.605078 0.4375 0.96875ZM4.8125 1.1875C4.57187 1.1875 4.375 1.38437 4.375 1.625C4.375 1.86563 4.57187 2.0625 4.8125 2.0625H13.5625C13.8031 2.0625 14 1.86563 14 1.625C14 1.38437 13.8031 1.1875 13.5625 1.1875H4.8125ZM4.8125 5.5625C4.57187 5.5625 4.375 5.75937 4.375 6C4.375 6.24063 4.57187 6.4375 4.8125 6.4375H13.5625C13.8031 6.4375 14 6.24063 14 6C14 5.75937 13.8031 5.5625 13.5625 5.5625H4.8125ZM4.8125 9.9375C4.57187 9.9375 4.375 10.1344 4.375 10.375C4.375 10.6156 4.57187 10.8125 4.8125 10.8125H13.5625C13.8031 10.8125 14 10.6156 14 10.375C14 10.1344 13.8031 9.9375 13.5625 9.9375H4.8125ZM1.3125 5.5625H2.1875V6.4375H1.3125V5.5625ZM1.09375 4.6875C0.730078 4.6875 0.4375 4.98008 0.4375 5.34375V6.65625C0.4375 7.01992 0.730078 7.3125 1.09375 7.3125H2.40625C2.76992 7.3125 3.0625 7.01992 3.0625 6.65625V5.34375C3.0625 4.98008 2.76992 4.6875 2.40625 4.6875H1.09375ZM1.3125 10.8125V9.9375H2.1875V10.8125H1.3125ZM0.4375 9.71875V11.0312C0.4375 11.3949 0.730078 11.6875 1.09375 11.6875H2.40625C2.76992 11.6875 3.0625 11.3949 3.0625 11.0312V9.71875C3.0625 9.35508 2.76992 9.0625 2.40625 9.0625H1.09375C0.730078 9.0625 0.4375 9.35508 0.4375 9.71875Z" fill="#009CDB"/>
</svg>
