<svg width="12" height="12" viewBox="0 0 12 12" fill="none" xmlns="http://www.w3.org/2000/svg">
<path d="M6.78125 0.96875C6.78125 0.605078 6.48867 0.3125 6.125 0.3125C5.76133 0.3125 5.46875 0.605078 5.46875 0.96875V5.34375H1.09375C0.730078 5.34375 0.4375 5.63633 0.4375 6C0.4375 6.36367 0.730078 6.65625 1.09375 6.65625H5.46875V11.0312C5.46875 11.3949 5.76133 11.6875 6.125 11.6875C6.48867 11.6875 6.78125 11.3949 6.78125 11.0312V6.65625H11.1562C11.5199 6.65625 11.8125 6.36367 11.8125 6C11.8125 5.63633 11.5199 5.34375 11.1562 5.34375H6.78125V0.96875Z" fill="#009CDB"/>
</svg>
