<svg width="14" height="14" viewBox="0 0 14 14" fill="none" xmlns="http://www.w3.org/2000/svg">
<path d="M0 2.01523C0 1.38633 0.511328 0.875 1.14023 0.875H12.8598C13.4887 0.875 14 1.38633 14 2.01523C14 2.27773 13.9098 2.53203 13.743 2.73438L9.1875 8.32617V12.2418C9.1875 12.7285 8.79102 13.125 8.3043 13.125C8.10469 13.125 7.91055 13.0566 7.75469 12.9336L5.22539 10.9266C4.96289 10.7188 4.8125 10.4043 4.8125 10.0707V8.32891L0.257031 2.73438C0.0902344 2.53203 0 2.27773 0 2.01523ZM1.50391 2.1875L5.97734 7.67812C6.07305 7.7957 6.125 7.94063 6.125 8.09375V9.96406L7.875 11.3531V8.09375C7.875 7.94336 7.92695 7.7957 8.02266 7.67812L12.4961 2.1875H1.50391Z" fill="#009CDB"/>
</svg>
