<svg width="14" height="12" viewBox="0 0 14 12" fill="none" xmlns="http://www.w3.org/2000/svg">
<path d="M1.09375 0.75C0.973437 0.75 0.875 0.848437 0.875 0.96875V2.28125C0.875 2.40156 0.973437 2.5 1.09375 2.5H2.40625C2.52656 2.5 2.625 2.40156 2.625 2.28125V0.96875C2.625 0.848437 2.52656 0.75 2.40625 0.75H1.09375ZM0.4375 0.96875C0.4375 0.605078 0.730078 0.3125 1.09375 0.3125H2.40625C2.76992 0.3125 3.0625 0.605078 3.0625 0.96875V2.28125C3.0625 2.64492 2.76992 2.9375 2.40625 2.9375H1.09375C0.730078 2.9375 0.4375 2.64492 0.4375 2.28125V0.96875ZM4.8125 1.40625H13.5625C13.6828 1.40625 13.7812 1.50469 13.7812 1.625C13.7812 1.74531 13.6828 1.84375 13.5625 1.84375H4.8125C4.69219 1.84375 4.59375 1.74531 4.59375 1.625C4.59375 1.50469 4.69219 1.40625 4.8125 1.40625ZM4.8125 5.78125H13.5625C13.6828 5.78125 13.7812 5.87969 13.7812 6C13.7812 6.12031 13.6828 6.21875 13.5625 6.21875H4.8125C4.69219 6.21875 4.59375 6.12031 4.59375 6C4.59375 5.87969 4.69219 5.78125 4.8125 5.78125ZM4.8125 10.1562H13.5625C13.6828 10.1562 13.7812 10.2547 13.7812 10.375C13.7812 10.4953 13.6828 10.5938 13.5625 10.5938H4.8125C4.69219 10.5938 4.59375 10.4953 4.59375 10.375C4.59375 10.2547 4.69219 10.1562 4.8125 10.1562ZM2.40625 5.125H1.09375C0.973437 5.125 0.875 5.22344 0.875 5.34375V6.65625C0.875 6.77656 0.973437 6.875 1.09375 6.875H2.40625C2.52656 6.875 2.625 6.77656 2.625 6.65625V5.34375C2.625 5.22344 2.52656 5.125 2.40625 5.125ZM1.09375 4.6875H2.40625C2.76992 4.6875 3.0625 4.98008 3.0625 5.34375V6.65625C3.0625 7.01992 2.76992 7.3125 2.40625 7.3125H1.09375C0.730078 7.3125 0.4375 7.01992 0.4375 6.65625V5.34375C0.4375 4.98008 0.730078 4.6875 1.09375 4.6875ZM1.09375 9.5C0.973437 9.5 0.875 9.59844 0.875 9.71875V11.0312C0.875 11.1516 0.973437 11.25 1.09375 11.25H2.40625C2.52656 11.25 2.625 11.1516 2.625 11.0312V9.71875C2.625 9.59844 2.52656 9.5 2.40625 9.5H1.09375ZM0.4375 9.71875C0.4375 9.35508 0.730078 9.0625 1.09375 9.0625H2.40625C2.76992 9.0625 3.0625 9.35508 3.0625 9.71875V11.0312C3.0625 11.3949 2.76992 11.6875 2.40625 11.6875H1.09375C0.730078 11.6875 0.4375 11.3949 0.4375 11.0312V9.71875Z" fill="#009CDB"/>
</svg>
